<mxfile host="app.diagrams.net" modified="2021-11-05T15:46:07.785Z" agent="5.0 (Windows NT 10.0; Win64; x64) AppleWebKit/537.36 (KHTML, like Gecko) Chrome/95.0.4638.69 Safari/537.36" etag="VdO-Uoun_rMzp_WqoyqH" version="15.6.8" type="github">
  <diagram id="R2lEEEUBdFMjLlhIrx00" name="Page-1">
    <mxGraphModel dx="1083" dy="1717" grid="1" gridSize="10" guides="1" tooltips="1" connect="1" arrows="1" fold="1" page="1" pageScale="1" pageWidth="850" pageHeight="1100" math="0" shadow="0" extFonts="Permanent Marker^https://fonts.googleapis.com/css?family=Permanent+Marker">
      <root>
        <mxCell id="0" />
        <mxCell id="1" parent="0" />
        <mxCell id="qoKDU3kjT6tSE2RLi8wQ-66" value="" style="rhombus;whiteSpace=wrap;html=1;" vertex="1" parent="1">
          <mxGeometry x="325" y="100" width="100" height="100" as="geometry" />
        </mxCell>
        <mxCell id="qoKDU3kjT6tSE2RLi8wQ-2" value="Student" style="rounded=0;whiteSpace=wrap;html=1;" vertex="1" parent="1">
          <mxGeometry x="360" y="410" width="90" height="30" as="geometry" />
        </mxCell>
        <mxCell id="qoKDU3kjT6tSE2RLi8wQ-3" value="Degree Program" style="rounded=0;whiteSpace=wrap;html=1;" vertex="1" parent="1">
          <mxGeometry x="510" y="110" width="100" height="40" as="geometry" />
        </mxCell>
        <mxCell id="qoKDU3kjT6tSE2RLi8wQ-4" value="contains" style="rhombus;whiteSpace=wrap;html=1;" vertex="1" parent="1">
          <mxGeometry x="335" y="110" width="80" height="80" as="geometry" />
        </mxCell>
        <mxCell id="qoKDU3kjT6tSE2RLi8wQ-10" value="" style="endArrow=none;html=1;rounded=0;entryX=1;entryY=0.75;entryDx=0;entryDy=0;exitX=0;exitY=0.5;exitDx=0;exitDy=0;" edge="1" parent="1" source="qoKDU3kjT6tSE2RLi8wQ-66" target="qoKDU3kjT6tSE2RLi8wQ-64">
          <mxGeometry width="50" height="50" relative="1" as="geometry">
            <mxPoint x="320" y="150" as="sourcePoint" />
            <mxPoint x="485" y="280" as="targetPoint" />
            <Array as="points" />
          </mxGeometry>
        </mxCell>
        <mxCell id="qoKDU3kjT6tSE2RLi8wQ-11" value="" style="endArrow=none;html=1;rounded=0;entryX=0;entryY=0.5;entryDx=0;entryDy=0;" edge="1" parent="1" target="qoKDU3kjT6tSE2RLi8wQ-3">
          <mxGeometry width="50" height="50" relative="1" as="geometry">
            <mxPoint x="420" y="150" as="sourcePoint" />
            <mxPoint x="430" y="230" as="targetPoint" />
          </mxGeometry>
        </mxCell>
        <mxCell id="qoKDU3kjT6tSE2RLi8wQ-12" value="enrolls in" style="rhombus;whiteSpace=wrap;html=1;" vertex="1" parent="1">
          <mxGeometry x="620" y="262.5" width="80" height="80" as="geometry" />
        </mxCell>
        <mxCell id="qoKDU3kjT6tSE2RLi8wQ-14" value="" style="endArrow=none;html=1;rounded=0;entryX=0;entryY=0.5;entryDx=0;entryDy=0;exitX=1;exitY=0.5;exitDx=0;exitDy=0;" edge="1" parent="1" source="qoKDU3kjT6tSE2RLi8wQ-2" target="qoKDU3kjT6tSE2RLi8wQ-12">
          <mxGeometry width="50" height="50" relative="1" as="geometry">
            <mxPoint x="380" y="280" as="sourcePoint" />
            <mxPoint x="430" y="230" as="targetPoint" />
          </mxGeometry>
        </mxCell>
        <mxCell id="qoKDU3kjT6tSE2RLi8wQ-15" value="" style="endArrow=none;html=1;rounded=0;entryX=0.5;entryY=1;entryDx=0;entryDy=0;exitX=0.5;exitY=0;exitDx=0;exitDy=0;" edge="1" parent="1" source="qoKDU3kjT6tSE2RLi8wQ-12" target="qoKDU3kjT6tSE2RLi8wQ-3">
          <mxGeometry width="50" height="50" relative="1" as="geometry">
            <mxPoint x="380" y="280" as="sourcePoint" />
            <mxPoint x="430" y="230" as="targetPoint" />
          </mxGeometry>
        </mxCell>
        <mxCell id="qoKDU3kjT6tSE2RLi8wQ-16" value="Given Names" style="ellipse;whiteSpace=wrap;html=1;" vertex="1" parent="1">
          <mxGeometry x="180" y="545" width="90" height="30" as="geometry" />
        </mxCell>
        <mxCell id="qoKDU3kjT6tSE2RLi8wQ-17" value="Surname" style="ellipse;whiteSpace=wrap;html=1;direction=south;" vertex="1" parent="1">
          <mxGeometry x="280" y="575" width="80" height="40" as="geometry" />
        </mxCell>
        <mxCell id="qoKDU3kjT6tSE2RLi8wQ-19" value="Date_of_Birth" style="ellipse;whiteSpace=wrap;html=1;" vertex="1" parent="1">
          <mxGeometry x="480" y="550" width="110" height="60" as="geometry" />
        </mxCell>
        <mxCell id="qoKDU3kjT6tSE2RLi8wQ-20" value="Student Identifier" style="ellipse;whiteSpace=wrap;html=1;" vertex="1" parent="1">
          <mxGeometry x="370" y="575" width="110" height="45" as="geometry" />
        </mxCell>
        <mxCell id="qoKDU3kjT6tSE2RLi8wQ-21" value="YearEnrolled" style="ellipse;whiteSpace=wrap;html=1;" vertex="1" parent="1">
          <mxGeometry x="520" y="490" width="100" height="40" as="geometry" />
        </mxCell>
        <mxCell id="qoKDU3kjT6tSE2RLi8wQ-22" value="&lt;u&gt;Student-ID&lt;/u&gt;" style="ellipse;whiteSpace=wrap;html=1;" vertex="1" parent="1">
          <mxGeometry x="175" y="490" width="90" height="40" as="geometry" />
        </mxCell>
        <mxCell id="qoKDU3kjT6tSE2RLi8wQ-23" value="" style="endArrow=none;html=1;rounded=0;exitX=1;exitY=0.5;exitDx=0;exitDy=0;" edge="1" parent="1" source="qoKDU3kjT6tSE2RLi8wQ-22">
          <mxGeometry width="50" height="50" relative="1" as="geometry">
            <mxPoint x="200" y="480" as="sourcePoint" />
            <mxPoint x="405" y="440" as="targetPoint" />
          </mxGeometry>
        </mxCell>
        <mxCell id="qoKDU3kjT6tSE2RLi8wQ-25" value="" style="endArrow=none;html=1;rounded=0;exitX=1;exitY=0.5;exitDx=0;exitDy=0;" edge="1" parent="1" source="qoKDU3kjT6tSE2RLi8wQ-16">
          <mxGeometry width="50" height="50" relative="1" as="geometry">
            <mxPoint x="360" y="490" as="sourcePoint" />
            <mxPoint x="410" y="440" as="targetPoint" />
          </mxGeometry>
        </mxCell>
        <mxCell id="qoKDU3kjT6tSE2RLi8wQ-26" value="" style="endArrow=none;html=1;rounded=0;exitX=0;exitY=0;exitDx=0;exitDy=0;" edge="1" parent="1" source="qoKDU3kjT6tSE2RLi8wQ-17">
          <mxGeometry width="50" height="50" relative="1" as="geometry">
            <mxPoint x="360" y="490" as="sourcePoint" />
            <mxPoint x="410" y="440" as="targetPoint" />
          </mxGeometry>
        </mxCell>
        <mxCell id="qoKDU3kjT6tSE2RLi8wQ-27" value="" style="endArrow=none;html=1;rounded=0;exitX=0.419;exitY=-0.031;exitDx=0;exitDy=0;exitPerimeter=0;" edge="1" parent="1" source="qoKDU3kjT6tSE2RLi8wQ-20">
          <mxGeometry width="50" height="50" relative="1" as="geometry">
            <mxPoint x="360" y="490" as="sourcePoint" />
            <mxPoint x="410" y="440" as="targetPoint" />
          </mxGeometry>
        </mxCell>
        <mxCell id="qoKDU3kjT6tSE2RLi8wQ-28" value="" style="endArrow=none;html=1;rounded=0;exitX=0.5;exitY=0;exitDx=0;exitDy=0;" edge="1" parent="1" source="qoKDU3kjT6tSE2RLi8wQ-19">
          <mxGeometry width="50" height="50" relative="1" as="geometry">
            <mxPoint x="360" y="490" as="sourcePoint" />
            <mxPoint x="410" y="440" as="targetPoint" />
          </mxGeometry>
        </mxCell>
        <mxCell id="qoKDU3kjT6tSE2RLi8wQ-30" value="" style="endArrow=none;html=1;rounded=0;exitX=0;exitY=0;exitDx=0;exitDy=0;" edge="1" parent="1" source="qoKDU3kjT6tSE2RLi8wQ-21">
          <mxGeometry width="50" height="50" relative="1" as="geometry">
            <mxPoint x="360" y="490" as="sourcePoint" />
            <mxPoint x="410" y="440" as="targetPoint" />
          </mxGeometry>
        </mxCell>
        <mxCell id="qoKDU3kjT6tSE2RLi8wQ-31" value="CreditPoints" style="ellipse;whiteSpace=wrap;html=1;" vertex="1" parent="1">
          <mxGeometry x="690" y="15" width="90" height="40" as="geometry" />
        </mxCell>
        <mxCell id="qoKDU3kjT6tSE2RLi8wQ-32" value="&lt;u&gt;Program_ID&lt;/u&gt;" style="ellipse;whiteSpace=wrap;html=1;" vertex="1" parent="1">
          <mxGeometry x="480" y="10" width="110" height="50" as="geometry" />
        </mxCell>
        <mxCell id="qoKDU3kjT6tSE2RLi8wQ-33" value="Name" style="ellipse;whiteSpace=wrap;html=1;" vertex="1" parent="1">
          <mxGeometry x="600" y="10" width="80" height="40" as="geometry" />
        </mxCell>
        <mxCell id="qoKDU3kjT6tSE2RLi8wQ-34" value="YearCommenced" style="ellipse;whiteSpace=wrap;html=1;" vertex="1" parent="1">
          <mxGeometry x="630" y="70" width="100" height="60" as="geometry" />
        </mxCell>
        <mxCell id="qoKDU3kjT6tSE2RLi8wQ-35" value="Name" style="ellipse;whiteSpace=wrap;html=1;" vertex="1" parent="1">
          <mxGeometry x="40" y="20" width="80" height="40" as="geometry" />
        </mxCell>
        <mxCell id="qoKDU3kjT6tSE2RLi8wQ-36" value="&lt;u&gt;Course_ID&lt;/u&gt;" style="ellipse;whiteSpace=wrap;html=1;" vertex="1" parent="1">
          <mxGeometry x="82.5" y="-30" width="100" height="50" as="geometry" />
        </mxCell>
        <mxCell id="qoKDU3kjT6tSE2RLi8wQ-37" value="YearCommenced" style="ellipse;whiteSpace=wrap;html=1;" vertex="1" parent="1">
          <mxGeometry x="200" y="70" width="110" height="50" as="geometry" />
        </mxCell>
        <mxCell id="qoKDU3kjT6tSE2RLi8wQ-38" value="CreditPoints" style="ellipse;whiteSpace=wrap;html=1;" vertex="1" parent="1">
          <mxGeometry x="175" y="10" width="90" height="40" as="geometry" />
        </mxCell>
        <mxCell id="qoKDU3kjT6tSE2RLi8wQ-42" value="Attempts" style="rhombus;whiteSpace=wrap;html=1;" vertex="1" parent="1">
          <mxGeometry x="175" y="260" width="80" height="80" as="geometry" />
        </mxCell>
        <mxCell id="qoKDU3kjT6tSE2RLi8wQ-43" value="" style="endArrow=none;html=1;rounded=0;exitX=0.5;exitY=0;exitDx=0;exitDy=0;entryX=0.5;entryY=1;entryDx=0;entryDy=0;" edge="1" parent="1" source="qoKDU3kjT6tSE2RLi8wQ-42" target="qoKDU3kjT6tSE2RLi8wQ-64">
          <mxGeometry width="50" height="50" relative="1" as="geometry">
            <mxPoint x="410" y="230" as="sourcePoint" />
            <mxPoint x="440" y="295" as="targetPoint" />
          </mxGeometry>
        </mxCell>
        <mxCell id="qoKDU3kjT6tSE2RLi8wQ-44" value="" style="endArrow=none;html=1;rounded=0;exitX=0;exitY=0;exitDx=0;exitDy=0;entryX=0.5;entryY=1;entryDx=0;entryDy=0;" edge="1" parent="1" source="qoKDU3kjT6tSE2RLi8wQ-2" target="qoKDU3kjT6tSE2RLi8wQ-42">
          <mxGeometry width="50" height="50" relative="1" as="geometry">
            <mxPoint x="410" y="230" as="sourcePoint" />
            <mxPoint x="460" y="180" as="targetPoint" />
          </mxGeometry>
        </mxCell>
        <mxCell id="qoKDU3kjT6tSE2RLi8wQ-45" value="&lt;u&gt;Year&lt;/u&gt;" style="ellipse;whiteSpace=wrap;html=1;" vertex="1" parent="1">
          <mxGeometry x="40" y="200" width="90" height="40" as="geometry" />
        </mxCell>
        <mxCell id="qoKDU3kjT6tSE2RLi8wQ-46" value="Mark" style="ellipse;whiteSpace=wrap;html=1;" vertex="1" parent="1">
          <mxGeometry x="50" y="310" width="80" height="45" as="geometry" />
        </mxCell>
        <mxCell id="qoKDU3kjT6tSE2RLi8wQ-47" value="&lt;u&gt;Semester&lt;/u&gt;" style="ellipse;whiteSpace=wrap;html=1;" vertex="1" parent="1">
          <mxGeometry x="50" y="250" width="90" height="50" as="geometry" />
        </mxCell>
        <mxCell id="qoKDU3kjT6tSE2RLi8wQ-48" value="Grade" style="ellipse;whiteSpace=wrap;html=1;" vertex="1" parent="1">
          <mxGeometry x="50" y="370" width="90" height="30" as="geometry" />
        </mxCell>
        <mxCell id="qoKDU3kjT6tSE2RLi8wQ-49" value="" style="endArrow=none;html=1;rounded=0;entryX=0;entryY=0.5;entryDx=0;entryDy=0;exitX=1;exitY=0.5;exitDx=0;exitDy=0;" edge="1" parent="1" source="qoKDU3kjT6tSE2RLi8wQ-47" target="qoKDU3kjT6tSE2RLi8wQ-42">
          <mxGeometry width="50" height="50" relative="1" as="geometry">
            <mxPoint x="260" y="390" as="sourcePoint" />
            <mxPoint x="310" y="340" as="targetPoint" />
          </mxGeometry>
        </mxCell>
        <mxCell id="qoKDU3kjT6tSE2RLi8wQ-50" value="" style="endArrow=none;html=1;rounded=0;exitX=0;exitY=0.5;exitDx=0;exitDy=0;entryX=1;entryY=0.5;entryDx=0;entryDy=0;" edge="1" parent="1" source="qoKDU3kjT6tSE2RLi8wQ-42" target="qoKDU3kjT6tSE2RLi8wQ-46">
          <mxGeometry width="50" height="50" relative="1" as="geometry">
            <mxPoint x="260" y="390" as="sourcePoint" />
            <mxPoint x="310" y="340" as="targetPoint" />
          </mxGeometry>
        </mxCell>
        <mxCell id="qoKDU3kjT6tSE2RLi8wQ-51" value="" style="endArrow=none;html=1;rounded=0;entryX=0;entryY=0.5;entryDx=0;entryDy=0;exitX=1;exitY=0.5;exitDx=0;exitDy=0;" edge="1" parent="1" source="qoKDU3kjT6tSE2RLi8wQ-48" target="qoKDU3kjT6tSE2RLi8wQ-42">
          <mxGeometry width="50" height="50" relative="1" as="geometry">
            <mxPoint x="260" y="390" as="sourcePoint" />
            <mxPoint x="310" y="340" as="targetPoint" />
          </mxGeometry>
        </mxCell>
        <mxCell id="qoKDU3kjT6tSE2RLi8wQ-52" value="" style="endArrow=none;html=1;rounded=0;entryX=0;entryY=0.5;entryDx=0;entryDy=0;exitX=1;exitY=0.5;exitDx=0;exitDy=0;" edge="1" parent="1" source="qoKDU3kjT6tSE2RLi8wQ-45" target="qoKDU3kjT6tSE2RLi8wQ-42">
          <mxGeometry width="50" height="50" relative="1" as="geometry">
            <mxPoint x="260" y="390" as="sourcePoint" />
            <mxPoint x="310" y="340" as="targetPoint" />
          </mxGeometry>
        </mxCell>
        <mxCell id="qoKDU3kjT6tSE2RLi8wQ-53" value="" style="endArrow=none;html=1;rounded=0;" edge="1" parent="1" target="qoKDU3kjT6tSE2RLi8wQ-33">
          <mxGeometry width="50" height="50" relative="1" as="geometry">
            <mxPoint x="550" y="110" as="sourcePoint" />
            <mxPoint x="490" y="70" as="targetPoint" />
          </mxGeometry>
        </mxCell>
        <mxCell id="qoKDU3kjT6tSE2RLi8wQ-54" value="" style="endArrow=none;html=1;rounded=0;entryX=0.713;entryY=0.941;entryDx=0;entryDy=0;entryPerimeter=0;" edge="1" parent="1" target="qoKDU3kjT6tSE2RLi8wQ-32">
          <mxGeometry width="50" height="50" relative="1" as="geometry">
            <mxPoint x="550" y="110" as="sourcePoint" />
            <mxPoint x="490" y="70" as="targetPoint" />
          </mxGeometry>
        </mxCell>
        <mxCell id="qoKDU3kjT6tSE2RLi8wQ-55" value="" style="endArrow=none;html=1;rounded=0;entryX=0.056;entryY=0.742;entryDx=0;entryDy=0;entryPerimeter=0;" edge="1" parent="1" target="qoKDU3kjT6tSE2RLi8wQ-31">
          <mxGeometry width="50" height="50" relative="1" as="geometry">
            <mxPoint x="550" y="110" as="sourcePoint" />
            <mxPoint x="490" y="70" as="targetPoint" />
          </mxGeometry>
        </mxCell>
        <mxCell id="qoKDU3kjT6tSE2RLi8wQ-56" value="" style="endArrow=none;html=1;rounded=0;entryX=0;entryY=0.5;entryDx=0;entryDy=0;" edge="1" parent="1" target="qoKDU3kjT6tSE2RLi8wQ-34">
          <mxGeometry width="50" height="50" relative="1" as="geometry">
            <mxPoint x="550" y="110" as="sourcePoint" />
            <mxPoint x="490" y="65" as="targetPoint" />
          </mxGeometry>
        </mxCell>
        <mxCell id="qoKDU3kjT6tSE2RLi8wQ-57" value="" style="endArrow=none;html=1;rounded=0;entryX=0.5;entryY=1;entryDx=0;entryDy=0;" edge="1" parent="1" target="qoKDU3kjT6tSE2RLi8wQ-36">
          <mxGeometry width="50" height="50" relative="1" as="geometry">
            <mxPoint x="145" y="110" as="sourcePoint" />
            <mxPoint x="400" y="70" as="targetPoint" />
          </mxGeometry>
        </mxCell>
        <mxCell id="qoKDU3kjT6tSE2RLi8wQ-58" value="" style="endArrow=none;html=1;rounded=0;entryX=0;entryY=1;entryDx=0;entryDy=0;" edge="1" parent="1" target="qoKDU3kjT6tSE2RLi8wQ-38">
          <mxGeometry width="50" height="50" relative="1" as="geometry">
            <mxPoint x="140" y="110" as="sourcePoint" />
            <mxPoint x="190" y="60" as="targetPoint" />
          </mxGeometry>
        </mxCell>
        <mxCell id="qoKDU3kjT6tSE2RLi8wQ-59" value="" style="endArrow=none;html=1;rounded=0;entryX=0;entryY=0.5;entryDx=0;entryDy=0;" edge="1" parent="1" target="qoKDU3kjT6tSE2RLi8wQ-37">
          <mxGeometry width="50" height="50" relative="1" as="geometry">
            <mxPoint x="140" y="110" as="sourcePoint" />
            <mxPoint x="400" y="70" as="targetPoint" />
          </mxGeometry>
        </mxCell>
        <mxCell id="qoKDU3kjT6tSE2RLi8wQ-60" value="" style="endArrow=none;html=1;rounded=0;entryX=0.597;entryY=1.091;entryDx=0;entryDy=0;entryPerimeter=0;" edge="1" parent="1" target="qoKDU3kjT6tSE2RLi8wQ-35">
          <mxGeometry width="50" height="50" relative="1" as="geometry">
            <mxPoint x="145" y="110" as="sourcePoint" />
            <mxPoint x="400" y="70" as="targetPoint" />
          </mxGeometry>
        </mxCell>
        <object label="Course" id="qoKDU3kjT6tSE2RLi8wQ-64">
          <mxCell style="shape=ext;double=1;rounded=0;whiteSpace=wrap;html=1;" vertex="1" parent="1">
            <mxGeometry x="90" y="110" width="85" height="30" as="geometry" />
          </mxCell>
        </object>
        <mxCell id="qoKDU3kjT6tSE2RLi8wQ-68" value="" style="endArrow=none;html=1;rounded=0;entryX=0.033;entryY=0.57;entryDx=0;entryDy=0;entryPerimeter=0;exitX=1;exitY=1;exitDx=0;exitDy=0;" edge="1" parent="1" source="qoKDU3kjT6tSE2RLi8wQ-64" target="qoKDU3kjT6tSE2RLi8wQ-66">
          <mxGeometry width="50" height="50" relative="1" as="geometry">
            <mxPoint x="340" y="260" as="sourcePoint" />
            <mxPoint x="390" y="210" as="targetPoint" />
          </mxGeometry>
        </mxCell>
        <mxCell id="qoKDU3kjT6tSE2RLi8wQ-71" value="1" style="text;html=1;align=center;verticalAlign=middle;resizable=0;points=[];autosize=1;strokeColor=none;fillColor=none;" vertex="1" parent="1">
          <mxGeometry x="540" y="150" width="20" height="20" as="geometry" />
        </mxCell>
        <mxCell id="qoKDU3kjT6tSE2RLi8wQ-72" value="M" style="text;html=1;align=center;verticalAlign=middle;resizable=0;points=[];autosize=1;strokeColor=none;fillColor=none;" vertex="1" parent="1">
          <mxGeometry x="450" y="420" width="30" height="20" as="geometry" />
        </mxCell>
        <mxCell id="qoKDU3kjT6tSE2RLi8wQ-73" value="1" style="text;html=1;align=center;verticalAlign=middle;resizable=0;points=[];autosize=1;strokeColor=none;fillColor=none;" vertex="1" parent="1">
          <mxGeometry x="490" y="110" width="20" height="20" as="geometry" />
        </mxCell>
        <mxCell id="qoKDU3kjT6tSE2RLi8wQ-74" value="M" style="text;html=1;align=center;verticalAlign=middle;resizable=0;points=[];autosize=1;strokeColor=none;fillColor=none;" vertex="1" parent="1">
          <mxGeometry x="175" y="115" width="30" height="20" as="geometry" />
        </mxCell>
        <mxCell id="qoKDU3kjT6tSE2RLi8wQ-75" value="M" style="text;html=1;align=center;verticalAlign=middle;resizable=0;points=[];autosize=1;strokeColor=none;fillColor=none;" vertex="1" parent="1">
          <mxGeometry x="140" y="140" width="30" height="20" as="geometry" />
        </mxCell>
        <mxCell id="qoKDU3kjT6tSE2RLi8wQ-76" value="N" style="text;html=1;align=center;verticalAlign=middle;resizable=0;points=[];autosize=1;strokeColor=none;fillColor=none;" vertex="1" parent="1">
          <mxGeometry x="350" y="390" width="20" height="20" as="geometry" />
        </mxCell>
        <mxCell id="qoKDU3kjT6tSE2RLi8wQ-78" value="Year" style="ellipse;whiteSpace=wrap;html=1;" vertex="1" parent="1">
          <mxGeometry x="310" y="10" width="70" height="30" as="geometry" />
        </mxCell>
        <mxCell id="qoKDU3kjT6tSE2RLi8wQ-80" value="Semester" style="ellipse;whiteSpace=wrap;html=1;" vertex="1" parent="1">
          <mxGeometry x="380" y="20" width="70" height="30" as="geometry" />
        </mxCell>
        <mxCell id="qoKDU3kjT6tSE2RLi8wQ-81" value="" style="endArrow=none;html=1;rounded=0;entryX=0.295;entryY=0.959;entryDx=0;entryDy=0;entryPerimeter=0;exitX=0.5;exitY=0;exitDx=0;exitDy=0;" edge="1" parent="1" source="qoKDU3kjT6tSE2RLi8wQ-66" target="qoKDU3kjT6tSE2RLi8wQ-78">
          <mxGeometry width="50" height="50" relative="1" as="geometry">
            <mxPoint x="280" y="240" as="sourcePoint" />
            <mxPoint x="330" y="190" as="targetPoint" />
          </mxGeometry>
        </mxCell>
        <mxCell id="qoKDU3kjT6tSE2RLi8wQ-83" value="" style="endArrow=none;html=1;rounded=0;entryX=0.361;entryY=1.033;entryDx=0;entryDy=0;entryPerimeter=0;exitX=0.5;exitY=0;exitDx=0;exitDy=0;" edge="1" parent="1" source="qoKDU3kjT6tSE2RLi8wQ-66" target="qoKDU3kjT6tSE2RLi8wQ-80">
          <mxGeometry width="50" height="50" relative="1" as="geometry">
            <mxPoint x="390" y="240" as="sourcePoint" />
            <mxPoint x="440" y="190" as="targetPoint" />
          </mxGeometry>
        </mxCell>
      </root>
    </mxGraphModel>
  </diagram>
</mxfile>
